<svg xmlns="http://www.w3.org/2000/svg" viewBox="0 0 32 32"><defs><style>.cls-1{fill:#f3cd14;}.cls-2{fill:#4a5f58;}</style></defs><g id="Layer_2" data-name="Layer 2"><path class="cls-1" d="M25.28,18.94c.22.48-.07.91-.13,1.35-.11.72-.23,1.44-.35,2.17a.51.51,0,0,1,0,.17,24.06,24.06,0,0,0-.94,2.79,15.56,15.56,0,0,1-.77,1.72,4.27,4.27,0,0,0-.29.94.79.79,0,0,1-.17.31,3.1,3.1,0,0,0-.71,2.46A.93.93,0,0,1,21,31.94c-.05,0-.12,0-.15.06h-.52l-.06-.1c-.47-.47-1.1-.74-1.57-1.23s-1.09-.41-1.55-.78a.42.42,0,0,0-.2-.05,7.75,7.75,0,0,1-4-1.95c-.51-.57-1.2-1-1.69-1.59s-1-1.07-1.45-1.59-.56-1-.94-1.5A6,6,0,0,1,7.53,20.5a23.29,23.29,0,0,1-.74-3.31c0-.32-.2-.63-.11-.94a2.12,2.12,0,0,0-.15-1.36v-.41a4.28,4.28,0,0,0,.16-1.41,2.69,2.69,0,0,1,.37-1.49,8.68,8.68,0,0,0,.41-1.11,1.75,1.75,0,0,1,.42-.89,2.77,2.77,0,0,0,.57-1A8.08,8.08,0,0,1,9,7.11c.26-.42.25-1,.6-1.32a.42.42,0,0,0,0-.12A15,15,0,0,0,9.82,3.9a2,2,0,0,1,.6-1.2,3,3,0,0,1,1.72-1,.83.83,0,0,1,.6,0,.23.23,0,0,0,.34,0,1.16,1.16,0,0,1,.43-.18A10.22,10.22,0,0,1,16,1.3a7,7,0,0,1,2.14.15.5.5,0,0,0,.17,0c.5,0,1,.15,1.48.14,0,0,.07,0,.07.13-2.19,0-4.37.09-6.59.15a12,12,0,0,0,1,1,2.06,2.06,0,0,0,1.13.65c.63.2,1.2.54,1.84.72l.76.59a1.4,1.4,0,0,0,.54.28.85.85,0,0,1,.43.29c.3.34.76.46,1.1.76a10,10,0,0,1,2.15,2.16s.05.09.09.11c.46.27.61.78.91,1.16.44.57.59,1.29,1,1.84a.27.27,0,0,1,.07.13c.19,1,.73,1.93.93,3,0,0,0,.1,0,.13a2.44,2.44,0,0,0,.12,1.11,7.51,7.51,0,0,1,0,2.95C25.29,18.8,25.25,18.89,25.28,18.94Z"/><path class="cls-2" d="M12.75,1.7A11.41,11.41,0,0,1,15.09.39c.35-.18.79-.18,1.16-.34a.18.18,0,0,0,.07,0H18a.62.62,0,0,0,.35.1,5.31,5.31,0,0,1,1.45.45A12.13,12.13,0,0,0,21.38,1a1.56,1.56,0,0,1,1,.6c0,.06.07.13.11.2a.45.45,0,0,1-.17.6,5.92,5.92,0,0,1-1.77,1,12.44,12.44,0,0,1-2.7.76l-.66.09c-.64-.18-1.21-.52-1.84-.72a2.06,2.06,0,0,1-1.13-.65,13.88,13.88,0,0,1-1-1c2.23-.06,4.42-.15,6.6-.15,0-.11,0-.14-.07-.14-.5,0-1-.16-1.48-.14a.49.49,0,0,1-.17,0A6.71,6.71,0,0,0,16,1.3a10.22,10.22,0,0,0-2.46.24,1.16,1.16,0,0,0-.43.18A.24.24,0,0,1,12.75,1.7Z"/><path class="cls-2" d="M17.37,9.26a5.57,5.57,0,0,0,.14,2.15.32.32,0,0,1-.24.4.37.37,0,0,1-.34,0c-.6-.34-1.27-.53-1.85-.9a8.35,8.35,0,0,0-1.36-.62c-.52-.22-1-.57-1.49-.8s-.58-.56-.84-.88a4.42,4.42,0,0,1-.86-2.47,2.46,2.46,0,0,1,0-.26c.11-.49.21-1,.33-1.48a2.05,2.05,0,0,1,.41-.93,6.17,6.17,0,0,0,.51-.95A.72.72,0,0,1,13,2.38,12.76,12.76,0,0,1,14.2,3.61a.52.52,0,0,0,.17.16,9.81,9.81,0,0,1,2,1.91A3.18,3.18,0,0,1,17,7.4a11.2,11.2,0,0,0,.25,1.52C17.32,9,17.34,9.15,17.37,9.26Zm-4.9-5.72a.35.35,0,0,0,0,.23A17.14,17.14,0,0,0,15.13,9a2.91,2.91,0,0,0,1,.85c-.24-.45-.53-.86-.73-1.31-.5-1.14-1.2-2.17-1.75-3.29-.18-.36-.45-.68-.62-1.06A2.93,2.93,0,0,0,12.47,3.54Z"/></g></svg>