<svg xmlns="http://www.w3.org/2000/svg" viewBox="0 0 136 240"><defs><style>.cls-1{fill:#fff;}</style></defs><g id="Layer_3" data-name="Layer 3"><path class="cls-1" d="M136.1,138.71a6.37,6.37,0,0,0-.18,2.91,21.38,21.38,0,0,1-.14,5.42c-.14,1.21-.1,2.42-.14,3.63a49.4,49.4,0,0,0,.27,6.66,30.91,30.91,0,0,1-.14,4.08,9.45,9.45,0,0,0,0,1.19,8.3,8.3,0,0,1,0,2,16.9,16.9,0,0,0,0,3.18,20.7,20.7,0,0,1-.05,3.34,18.83,18.83,0,0,0,.06,2.49,2.09,2.09,0,0,1-2,2.12,2,2,0,0,1-2.15-1.86,12.56,12.56,0,0,1-.07-2.74,32.92,32.92,0,0,0,0-4.33,20,20,0,0,1,.14-3,6,6,0,0,0,0-.84c-.05-1.42.17-2.82.15-4.23,0-2.06-.18-4.11-.32-6.16,0-.61,0-1.2,0-1.79,0-2.15.19-4.28.4-6.42a13.29,13.29,0,0,0-.19-3.33,4.6,4.6,0,0,1,.1-1.92,7.8,7.8,0,0,0-.14-3.12,8.61,8.61,0,0,1,0-3.12,8,8,0,0,0-.1-2.48,35.38,35.38,0,0,1,.08-4.83,29.73,29.73,0,0,0,.19-4.72,16.83,16.83,0,0,1,.09-3.09,3.91,3.91,0,0,0-.25-1.7,4.62,4.62,0,0,1-.3-2,15.43,15.43,0,0,0,0-2,9.53,9.53,0,0,1,.32-3,6.34,6.34,0,0,0,0-2.53,21.15,21.15,0,0,1,.07-4.57,10.71,10.71,0,0,0-.28-4,3,3,0,0,1,0-1.87c.12-.36.2-.73.29-1.1a4.51,4.51,0,0,0-.27-2.69,3.71,3.71,0,0,1-.22-1.62c.12-2.29.25-4.57.36-6.86a5.3,5.3,0,0,0-.22-1.48,3.19,3.19,0,0,1,.07-1.86,3.93,3.93,0,0,0,.2-2.15c-.24-1.26,0-2.56-.21-3.83a31.88,31.88,0,0,1,0-4c0-2-.24-3.88-.21-5.82a5.94,5.94,0,0,1,.25-1.87,7.35,7.35,0,0,0,.2-2.56,17.46,17.46,0,0,0-.43-3.75,1.9,1.9,0,0,1,.09-1.13,10.12,10.12,0,0,0,.13-5.32,7.4,7.4,0,0,1,0-3.5,9.81,9.81,0,0,0,.17-1.88c0-.22-.06-.32-.29-.28a2.6,2.6,0,0,0-.39.05,5.58,5.58,0,0,1-2.81-.06,5.91,5.91,0,0,0-3,0,5.22,5.22,0,0,1-2.8,0,1.52,1.52,0,0,0-1.07.06,4.14,4.14,0,0,1-2.88.14,3.17,3.17,0,0,0-1.62,0,4.11,4.11,0,0,1-2.12-.07,4.88,4.88,0,0,0-2.08-.13,5.57,5.57,0,0,1-1.58,0,5.5,5.5,0,0,0-2-.07,8.28,8.28,0,0,1-2.72-.07,5.67,5.67,0,0,0-1.24.08,24.83,24.83,0,0,1-4.48,0,3,3,0,0,0-1.09.11,7.68,7.68,0,0,1-3,0,8,8,0,0,0-3.54.18,7.63,7.63,0,0,1-3.46,0,6.79,6.79,0,0,0-2.42,0,6.64,6.64,0,0,1-2-.08,6,6,0,0,0-1.58,0,4.18,4.18,0,0,1-2-.12,2.57,2.57,0,0,0-1.85,0,5.6,5.6,0,0,1-2.76,0,11.92,11.92,0,0,0-3.77,0,10.81,10.81,0,0,1-4,0,10.41,10.41,0,0,0-3.52.08,15,15,0,0,1-4.12,0c-1.38-.18-2.78-.08-4.18-.22a3.64,3.64,0,0,0-1.26.26,3,3,0,0,1-1.81,0,9.11,9.11,0,0,0-3.6-.23,12,12,0,0,1-1.8,0,8.85,8.85,0,0,0-2.62.14,4.12,4.12,0,0,1-1.88-.08,2.68,2.68,0,0,0-1.61.05,4.12,4.12,0,0,1-2.36.06,3.66,3.66,0,0,0-1.77.09,3.67,3.67,0,0,1-1.68.07,6.22,6.22,0,0,0-2.47,0,13.27,13.27,0,0,1-3.27-.15,13.47,13.47,0,0,0-2.54,0,2.7,2.7,0,0,1-.49,0c-3.41-.25-6.81.28-10.21.07-1,0-1.93,0-2.89-.15a6.59,6.59,0,0,0-2,.11,3.75,3.75,0,0,1-1.73-.1,3.11,3.11,0,0,0-1.86,0,3.84,3.84,0,0,1-2.25,0,3.74,3.74,0,0,0-1.73-.1,10.56,10.56,0,0,1-3.27-.13A2.06,2.06,0,0,1,.5,42.05a2,2,0,0,1,2.14-1.86,19.62,19.62,0,0,0,3.83-.07,1.59,1.59,0,0,1,.68.1,4.17,4.17,0,0,0,2.59,0,3.23,3.23,0,0,1,1.77.11,4.12,4.12,0,0,0,1.88.08,10.32,10.32,0,0,1,2.83,0,48.93,48.93,0,0,0,7.06,0,21.37,21.37,0,0,1,4.38,0,1.36,1.36,0,0,0,.45,0,18,18,0,0,1,4.81.1,5.65,5.65,0,0,0,1.59,0,5.74,5.74,0,0,1,2.37,0,3,3,0,0,0,1.58,0,5,5,0,0,1,2.42,0,2.32,2.32,0,0,0,1.28-.05,4.65,4.65,0,0,1,2.74,0,2.74,2.74,0,0,0,1.24,0,12.2,12.2,0,0,1,3.08-.1,19.14,19.14,0,0,0,2.93-.1,6.31,6.31,0,0,1,2.7.29,1.27,1.27,0,0,0,.88,0A8.21,8.21,0,0,1,59,40.3c1.73.11,3.47.2,5.21.27a3.66,3.66,0,0,0,.94-.08,13.92,13.92,0,0,1,4.86,0,8.06,8.06,0,0,0,3-.14,11,11,0,0,1,4,0,5.17,5.17,0,0,0,2.56-.06,3.28,3.28,0,0,1,2.25,0,3.14,3.14,0,0,0,1.66.17,6.51,6.51,0,0,1,2.33,0,6.22,6.22,0,0,0,1.88-.07,6.65,6.65,0,0,1,1.94.07,7.85,7.85,0,0,0,4-.3,4.79,4.79,0,0,1,2,0c.75,0,1.49.16,2.23.24a5.61,5.61,0,0,0,1.58-.19,6.34,6.34,0,0,1,1.74,0,17.75,17.75,0,0,0,4.12-.09,5,5,0,0,1,1.39,0,7.29,7.29,0,0,0,2.33,0,7.3,7.3,0,0,1,2.38.08,4.35,4.35,0,0,0,1.44,0,5.82,5.82,0,0,1,2.56.22,2.58,2.58,0,0,0,1.38,0,4.75,4.75,0,0,1,2.31.06,1.84,1.84,0,0,0,1.18,0,4,4,0,0,1,2.77-.16,2.69,2.69,0,0,0,1.38,0,10.13,10.13,0,0,1,4.74.06,4.9,4.9,0,0,0,1.87-.11,8.82,8.82,0,0,1,3.16.24,1.91,1.91,0,0,1,1.49,1.75,14.54,14.54,0,0,1-.16,5.54,7.06,7.06,0,0,0,.24,2.51,32.82,32.82,0,0,1,.13,4.09,6.61,6.61,0,0,1-.32,1.35,1.6,1.6,0,0,0,0,.84,17.39,17.39,0,0,1,.36,3.81,11.56,11.56,0,0,1-.39,3.65,7.87,7.87,0,0,0,0,3,4.22,4.22,0,0,1,.07.79c-.08,1.89,0,3.79,0,5.68A26.83,26.83,0,0,0,136.1,79v1a3.8,3.8,0,0,0-.28,2.69,2,2,0,0,1,.09.69c-.08,1.77-.16,3.54-.26,5.31a7.42,7.42,0,0,0,.45,4v2.8a4.09,4.09,0,0,0-.37,2.21,14,14,0,0,1,.23,4.61,24.41,24.41,0,0,0-.08,3.73,9.81,9.81,0,0,1-.21,4.34,4.26,4.26,0,0,0-.11,1.88,2,2,0,0,1,0,.54,6.12,6.12,0,0,0,.52,3.45V123a2.17,2.17,0,0,0-.07.24,31.59,31.59,0,0,0-.24,7.59,5.44,5.44,0,0,1,.05,2.13c-.41,1.59,0,3.15.26,4.72Z"/><path class="cls-1" d="M95.09,239.92a18.22,18.22,0,0,1-3.84-1,7.41,7.41,0,0,1-2.65-2A11.32,11.32,0,0,1,86.07,228a10.82,10.82,0,0,1,2.56-5.91,8.53,8.53,0,0,1,5.62-3,15.59,15.59,0,0,1,5.06.47,4.87,4.87,0,0,1,1.69.84,12.19,12.19,0,0,1,3.41,3.38,5.71,5.71,0,0,1,.56,1.49,14.07,14.07,0,0,1,.25,7.82,9.05,9.05,0,0,1-2.94,4.58,9.45,9.45,0,0,1-5.41,2.16l-.28.07Zm5-9.83a8.46,8.46,0,0,0-.38-3.69,17,17,0,0,0-.72-1.7,3.92,3.92,0,0,0-1.82-1.78,3.77,3.77,0,0,0-3.07-.37A2.87,2.87,0,0,0,92.43,224a11.12,11.12,0,0,0-.91,5.34,11.52,11.52,0,0,0,.42,3.49c.66,1.85,1.65,3.52,4,3.61,0,0,.09,0,.14,0a4,4,0,0,0,2-.31,4,4,0,0,0,1.81-2.74A9.81,9.81,0,0,0,100.14,230.09Z"/><path class="cls-1" d="M59,74.19A5.19,5.19,0,0,1,60.78,74c2,0,4.09-.24,6.13-.21,1.71,0,3.42-.09,5.13,0a6.51,6.51,0,0,0,1.24-.12,9.53,9.53,0,0,1,2.72,0,40.61,40.61,0,0,0,4.26-.09c-.12-.28-.31-.22-.45-.23A9.32,9.32,0,0,1,78,73.07a10.78,10.78,0,0,0-2.53-.22,4.65,4.65,0,0,1-1.61-.31,5,5,0,0,0-2.17-.13,6.6,6.6,0,0,1-1.83-.14,10.94,10.94,0,0,0-4.15.22,1.29,1.29,0,0,1-.55.05,13.24,13.24,0,0,0-4.43.44,4.83,4.83,0,0,0-2,.73.7.7,0,0,1-.23.11.63.63,0,0,1-.78-.26c-.12-.24.25-.29.42-.36a4.37,4.37,0,0,0,1.33-1,4.19,4.19,0,0,1,1.78-1,14.1,14.1,0,0,0,3.27-1.58,6.42,6.42,0,0,1,2.39-.79,2.45,2.45,0,0,0,.67-.18A8.45,8.45,0,0,1,70.91,68a26.26,26.26,0,0,1,7.44.91,6,6,0,0,1,1.1.47,16.94,16.94,0,0,0,4,1.36,12.8,12.8,0,0,1,4,1.42A3.13,3.13,0,0,1,88.86,74a1.33,1.33,0,0,1-.47,1.72,20.16,20.16,0,0,1-2.69,1.87,39.72,39.72,0,0,1-12.31,4,6.19,6.19,0,0,0-1.43.19,11.33,11.33,0,0,1,1.82,1.42,6.77,6.77,0,0,0,2.48,1.36,1.72,1.72,0,0,1,.9.58,5.15,5.15,0,0,0,1.58,1.27,20.24,20.24,0,0,1,4.64,3.49,18.17,18.17,0,0,0,2.45,2.19,5.91,5.91,0,0,1,1.35,1.78,6.88,6.88,0,0,0,1.89,2,2.17,2.17,0,0,1,.73.86,15.4,15.4,0,0,0,2.29,3.55.75.75,0,0,1,.2.34,8.38,8.38,0,0,0,1.7,3.46,4.15,4.15,0,0,1,.75,2,6.9,6.9,0,0,0,.74,2.26,53.65,53.65,0,0,1,2.07,6.24,3.15,3.15,0,0,1-.1,1.43,2,2,0,0,0,.09,1,8.12,8.12,0,0,1,.68,4.38c-.13.78.23,1.57.17,2.38-.1,1.5,0,3-.59,4.46a1.49,1.49,0,0,0,.15,1.11,2.16,2.16,0,0,1-.09,1.69,12.33,12.33,0,0,0-.79,3.94c-.16,1.37-.45,2.71-.68,4.07a10.87,10.87,0,0,1-.84,2.74,11,11,0,0,0-.81,2.3,28.73,28.73,0,0,1-1.81,5.59,1.4,1.4,0,0,0-.14.37,8.86,8.86,0,0,1-1.72,3.93,7,7,0,0,0-.78,2c-.17.7-.39,1.38-.59,2.06a1.27,1.27,0,0,1-.41.67,4.79,4.79,0,0,0-1.55,2.56,17.91,17.91,0,0,0-1,4,3.47,3.47,0,0,0,.18,1.37,1.46,1.46,0,0,1-.1,1.19,5.84,5.84,0,0,0-.43,1.07,1.53,1.53,0,0,1-1.6,1.26l-2.28.17a.81.81,0,0,1-.63-.25c-.5-.41-1-.81-1.5-1.23a5,5,0,0,0-1.64-1,2.46,2.46,0,0,1-1.09-1A5.15,5.15,0,0,0,75,165.09a6.55,6.55,0,0,1-2.5-1.18,1.78,1.78,0,0,0-.86-.36,37.1,37.1,0,0,1-9.47-3.35,6.53,6.53,0,0,1-2.3-1.72,14.76,14.76,0,0,0-3.35-2.95A17.71,17.71,0,0,1,53,151.84a4.72,4.72,0,0,0-.66-.68,5.45,5.45,0,0,1-1.52-1.82,3.16,3.16,0,0,0-1-1A9.68,9.68,0,0,1,47,144.64a22.15,22.15,0,0,0-2.82-4.15,6.75,6.75,0,0,1-1-1.63,2.61,2.61,0,0,0-.4-.8,8,8,0,0,1-1.54-3.89,17.41,17.41,0,0,0-1-3.58,14.71,14.71,0,0,1-.57-2.73,7.12,7.12,0,0,0-.55-1.75,3.49,3.49,0,0,1-.35-1.74,11.82,11.82,0,0,0-.41-3.55,1.14,1.14,0,0,1,0-.73,4.44,4.44,0,0,0,0-3.17,8.79,8.79,0,0,1-.11-4.32,9.59,9.59,0,0,0,.08-3.81.74.74,0,0,1,.11-.58,6.82,6.82,0,0,0,.85-2.59,1.17,1.17,0,0,1,.25-.58,7.24,7.24,0,0,0,1.42-3.42,6.66,6.66,0,0,1,1.62-3.31A7.71,7.71,0,0,0,44,95.58a33.89,33.89,0,0,1,1.49-4.17,9.88,9.88,0,0,0,1.25-3.29,1.42,1.42,0,0,1,.41-.68,3.81,3.81,0,0,0,.75-1.91,37.59,37.59,0,0,0,.49-5.5,1.3,1.3,0,0,1,.26-.69,8,8,0,0,0,1.14-2.09,1.46,1.46,0,0,1,.56-.69A10.26,10.26,0,0,0,52,75.18a5.52,5.52,0,0,1,1.56-1.06A.82.82,0,0,1,53.9,74c.31,0,.46.1.25.41l-.42.62a6.17,6.17,0,0,0-1,1.74,4.85,4.85,0,0,1-.83,1.47,10.8,10.8,0,0,0-1.8,4.6c-.22,1-.39,2-.67,3a8,8,0,0,0,0,3.7c.17.88.42,1.75.52,2.64a2.85,2.85,0,0,0,.47,1.24,44.14,44.14,0,0,0,2.7,4.07,7.52,7.52,0,0,0,3.27,2.52,5.18,5.18,0,0,1,1.28.66,30.44,30.44,0,0,0,5.58,2.75,6.85,6.85,0,0,1,1.78,1,4.23,4.23,0,0,0,1.87.9,5.41,5.41,0,0,1,1.71.78,14.3,14.3,0,0,0,1.5.79,3.94,3.94,0,0,0,2.9.17l.19,0a3.94,3.94,0,0,0,1.17-2.4A15.28,15.28,0,0,1,73.82,98a3.7,3.7,0,0,0-.14-1.48,9.3,9.3,0,0,1-.37-2.35,3.28,3.28,0,0,0-.13-.94,9.73,9.73,0,0,1-.5-2.88,2.44,2.44,0,0,0-.38-1.23c-.45-.79-.81-1.64-1.18-2.47a8.71,8.71,0,0,0-2.36-3A19.19,19.19,0,0,1,66,80.71a3,3,0,0,0-1-.92,6.89,6.89,0,0,1-2.36-2.1,4.51,4.51,0,0,0-.84-.85C60.78,76.05,60,75.09,59,74.19Z"/><path class="cls-1" d="M.28,191.77a26.68,26.68,0,0,1,.28-4.23,5.05,5.05,0,0,0,0-1.1,11.12,11.12,0,0,1-.17-2.23c0-1.29-.11-2.56-.16-3.84a29.14,29.14,0,0,1,.25-4.47A20.19,20.19,0,0,0,.33,170a3.36,3.36,0,0,1,0-1.34,15.89,15.89,0,0,0,0-6.07,5.66,5.66,0,0,1,0-2.17,4.65,4.65,0,0,0,0-1.93,3.53,3.53,0,0,1,.16-2,2.54,2.54,0,0,0,.07-1.8,4.45,4.45,0,0,1,0-2.32,2.13,2.13,0,0,0-.07-1.12,4.15,4.15,0,0,1-.08-2.65A7.24,7.24,0,0,0,.33,145a9.29,9.29,0,0,1-.09-2.58,3,3,0,0,0,0-.84,7.53,7.53,0,0,1,.31-3.3,2.66,2.66,0,0,0,.05-.89A8.24,8.24,0,0,1,.7,135a2.28,2.28,0,0,0-.1-1.32,7.94,7.94,0,0,1-.06-4.19,3.55,3.55,0,0,0-.06-1.91,3.46,3.46,0,0,1-.12-2.29,3.74,3.74,0,0,0,0-1.88,6,6,0,0,1,0-2.32,5,5,0,0,0,0-1.55,6.6,6.6,0,0,1,.07-2.08,5,5,0,0,0,.07-1.68,18.48,18.48,0,0,1-.12-3.72,7.32,7.32,0,0,0-.16-2.38,6.92,6.92,0,0,1,.1-3.07,14.81,14.81,0,0,0-.06-4.46,16.16,16.16,0,0,1,.07-3.68,36.31,36.31,0,0,0,0-8.9,7.78,7.78,0,0,1,.15-3.36,8.09,8.09,0,0,0,0-3.36,11.44,11.44,0,0,1-.07-2.68,27.19,27.19,0,0,0,.09-3.83A18.09,18.09,0,0,1,.75,73.9a11.43,11.43,0,0,0-.12-2.48,34.9,34.9,0,0,1-.14-5.87A2.13,2.13,0,0,1,3.8,63.78a2,2,0,0,1,.87,1.81,38.38,38.38,0,0,0,.27,7.5,8,8,0,0,1-.15,1.83,21.06,21.06,0,0,0-.08,2.24c0,1.12,0,2.23-.09,3.34a24.1,24.1,0,0,0,.32,4.32,3.91,3.91,0,0,1-.16,1.37,8.76,8.76,0,0,0-.11,4,12.65,12.65,0,0,1,.14,1.63,56.26,56.26,0,0,1-.38,8.41,12.23,12.23,0,0,0,.21,3,16.89,16.89,0,0,1-.18,4.32,5.17,5.17,0,0,0,0,1.88c.36,1.39,0,2.81.1,4.22a18,18,0,0,0,.17,2.08,4,4,0,0,1,0,1.54,10.58,10.58,0,0,0-.11,3,6.26,6.26,0,0,1-.09,1.14,5.36,5.36,0,0,0,0,1.83,4.55,4.55,0,0,1,0,2.23,2.1,2.1,0,0,0,.06,1.46c.53,1.16.14,2.31,0,3.47a4.62,4.62,0,0,0,.11,2.5,3.73,3.73,0,0,1,.14,2.4,9,9,0,0,0,0,2.48,2.74,2.74,0,0,1-.09,1,11.55,11.55,0,0,0-.33,2.81,31.52,31.52,0,0,0,.4,5.4,5.75,5.75,0,0,1-.19,2.22,2,2,0,0,0,0,1.22,4,4,0,0,1,.1,2.55,3.28,3.28,0,0,0,.13,1.81,3.2,3.2,0,0,1-.09,2,4,4,0,0,0-.17,2.16,5.23,5.23,0,0,1-.1,1.93,2.73,2.73,0,0,0,0,1.24,8.61,8.61,0,0,1,.21,2.32,14.85,14.85,0,0,0,.06,2,4.39,4.39,0,0,1-.08,1.73,5.59,5.59,0,0,0-.11,2.41,23.51,23.51,0,0,1-.09,6.7,15.11,15.11,0,0,0-.06,3.68c.06,1,.08,2.07.07,3.1a11.34,11.34,0,0,0,.16,1.93,11,11,0,0,1-.11,3.13,29.19,29.19,0,0,0-.07,5.12c0,.3.16.41.44.4,1.72-.1,3.45.32,5.17-.08a2.73,2.73,0,0,1,1.33.1,3.66,3.66,0,0,0,2,0,5.24,5.24,0,0,1,2.46,0,2.11,2.11,0,0,0,.94-.05,12.43,12.43,0,0,1,4.51-.13,12.38,12.38,0,0,0,4.5,0,1.76,1.76,0,0,1,.79,0,15.2,15.2,0,0,0,3.22.3,56.43,56.43,0,0,0,5.67-.18.75.75,0,0,1,.2,0c1.86.23,3.71-.26,5.57,0a18.43,18.43,0,0,0,3.48-.13,5.3,5.3,0,0,1,2,.12,9.8,9.8,0,0,0,4.34.27,4,4,0,0,1,1.29,0,6.3,6.3,0,0,0,2.33-.14,5.39,5.39,0,0,1,1.88,0,4.14,4.14,0,0,0,1.68,0,7.8,7.8,0,0,1,3.12,0,7.17,7.17,0,0,0,3.35-.15,3.06,3.06,0,0,1,1.67,0,4.66,4.66,0,0,0,1.93.06,5,5,0,0,1,2.17.12,25.27,25.27,0,0,0,4.52.21c1.77.11,3.55,0,5.33,0a4.16,4.16,0,0,0,1.22-.2,14.62,14.62,0,0,1,4.07-.2c.76,0,1.52,0,2.29-.07a4.8,4.8,0,0,1,1.73.06,5.64,5.64,0,0,0,2.52,0,2.58,2.58,0,0,1,1.38.1,3,3,0,0,0,2.09,0,2.84,2.84,0,0,1,2,.05,2.43,2.43,0,0,0,1.7,0,3.93,3.93,0,0,1,2.07-.11,5.27,5.27,0,0,0,2,0,5.17,5.17,0,0,1,2.07.1,7.62,7.62,0,0,0,3.36.07,6.85,6.85,0,0,1,2.63-.08,3.69,3.69,0,0,0,1.48,0,5.83,5.83,0,0,1,2.66.12,1.46,1.46,0,0,0,.83,0,9.13,9.13,0,0,1,4.78-.18,7.81,7.81,0,0,0,1.87.12,21.15,21.15,0,0,0,4.56-.28,3.42,3.42,0,0,1,1.47.22,4.65,4.65,0,0,0,1.48.13,10.87,10.87,0,0,1,3.32.21,2.07,2.07,0,0,1,1.81,2.29,2.1,2.1,0,0,1-2.45,1.8,11.74,11.74,0,0,0-2.58-.16,6.76,6.76,0,0,1-2.33-.2,4.52,4.52,0,0,0-2,.12,5.35,5.35,0,0,1-1.44,0,8.93,8.93,0,0,0-2.13,0,8.58,8.58,0,0,1-2.67-.28,4.42,4.42,0,0,0-2.31.08,5,5,0,0,1-3.27.13,2.16,2.16,0,0,0-1.13,0,7.59,7.59,0,0,1-2.73,0,2.59,2.59,0,0,0-1,.05,10,10,0,0,1-4.74,0,6.05,6.05,0,0,0-2.08,0,3.6,3.6,0,0,1-1.09,0,4,4,0,0,0-2.34.13,2.65,2.65,0,0,1-1.86,0,2.76,2.76,0,0,0-1.94,0,3,3,0,0,1-2,0,3.79,3.79,0,0,0-2.11-.14,4.26,4.26,0,0,1-1.88,0,7,7,0,0,0-1.88-.11c-.91.07-1.83.05-2.74,0a19.37,19.37,0,0,0-3.56.3,25.68,25.68,0,0,1-3.73.19c-2.21,0-4.42-.13-6.63-.09A4.22,4.22,0,0,1,70,198.7a4,4,0,0,0-1.68,0,5,5,0,0,1-1.84,0,3.63,3.63,0,0,0-2,.07,8.78,8.78,0,0,1-3.61,0,6.73,6.73,0,0,0-2.57,0,4.42,4.42,0,0,1-1.88,0,4.4,4.4,0,0,0-1.77.1,5.74,5.74,0,0,1-2,.09,14.62,14.62,0,0,0-2.48.09,11.28,11.28,0,0,1-4-.4,3.29,3.29,0,0,0-1.13-.1,22.47,22.47,0,0,1-4.92,0,3.92,3.92,0,0,0-1.23.11,17.07,17.07,0,0,1-2.14.07q-3,.07-6,.18a19.86,19.86,0,0,1-3.93-.23,2.93,2.93,0,0,0-1.18,0,12.66,12.66,0,0,1-4.12,0,12.81,12.81,0,0,0-4.74.11,2.36,2.36,0,0,1-1.09,0,4.79,4.79,0,0,0-2.32,0,3.48,3.48,0,0,1-1.92,0,4.47,4.47,0,0,0-2.21,0,5.32,5.32,0,0,1-1.78,0,46.86,46.86,0,0,0-4.74-.09,2.12,2.12,0,0,1-2.31-2.24C.42,195,.24,193.41.28,191.77Z"/><path class="cls-1" d="M50.67,87.84a11.09,11.09,0,0,1,.5-3.17,26.06,26.06,0,0,1,1-4A5.15,5.15,0,0,1,53,79.23a6.6,6.6,0,0,0,1.11-2,6.66,6.66,0,0,1,1.12-1.82,2.35,2.35,0,0,1,2.1-.46,5,5,0,0,1,1.93,1.36c1.11,1.19,2.38,2.21,3.38,3.51a4.76,4.76,0,0,0,1.31.9,3.84,3.84,0,0,1,1.14,1,21.54,21.54,0,0,0,3.09,3.17,6.4,6.4,0,0,1,1.78,2.37,14.25,14.25,0,0,0,1,2.15,2.64,2.64,0,0,1,.39,1.47,5.05,5.05,0,0,0,.29,1.81,11.32,11.32,0,0,1,.41,2.7,3.64,3.64,0,0,0,.09.59,7.61,7.61,0,0,1,.19,3.15,22.25,22.25,0,0,0,.17,2.93,6.07,6.07,0,0,0,.4,2.19,1.09,1.09,0,0,1-.31,1.35,1.23,1.23,0,0,1-1.22.2,7.18,7.18,0,0,1-2-.91,4.58,4.58,0,0,0-1.7-.8,5,5,0,0,1-2-1A16.6,16.6,0,0,0,62,101.34a21.62,21.62,0,0,1-3.86-2,1.74,1.74,0,0,0-.49-.25A7.91,7.91,0,0,1,53.4,95.5c-.6-.9-1.16-1.82-1.75-2.73a2.94,2.94,0,0,1-.33-1.29A25.1,25.1,0,0,1,50.67,87.84ZM57,79.67A14.5,14.5,0,0,0,57.87,83c.76,1.92,1.74,3.73,2.57,5.62a41,41,0,0,0,5.43,8.79,10.44,10.44,0,0,0,2.45,2.09,2.13,2.13,0,0,0-.2-.46c-.75-1.57-2-2.9-2.47-4.6a7.46,7.46,0,0,0-.71-1.48A36.41,36.41,0,0,1,61.69,87a5.69,5.69,0,0,0-.61-1.14,31.1,31.1,0,0,1-2.36-3.92A8.82,8.82,0,0,0,57,79.67Z"/><path class="cls-1" d="M64.31,231.82a57.1,57.1,0,0,0,2.32-6.08c.66-1.88,1.32-3.76,2-5.65a.86.86,0,0,1,.92-.66c.81,0,1.62-.15,2.43-.18a38.65,38.65,0,0,1,4,.2.68.68,0,0,1,.68.77c0,.41,0,.83-.1,1.24A.68.68,0,0,1,76,222c-.34.11-.69.23-1,.32a.44.44,0,0,0-.4.56c.45,2.93.25,5.91.66,8.84a13.34,13.34,0,0,1,0,1.79,26.61,26.61,0,0,0,.19,2.68.41.41,0,0,0,.36.41l1.16.29a.65.65,0,0,1,.57.75c0,.41-.08.82-.14,1.23a.73.73,0,0,1-.75.66,39.8,39.8,0,0,1-6,0c-.45,0-.9,0-1.35,0s-.79-.24-.79-.8c0-1.81-.15-1.63,1.53-2.08.69-.18.7-.23.65-.92-.09-1-.13-2-.19-2.93-.11-1.95-.22-3.9-.34-5.93a19.34,19.34,0,0,0-1.12,2.49c-.67,2.25-1.56,4.41-2.43,6.59a9,9,0,0,0-.7,2.17.69.69,0,0,1-.76.59c-.86,0-1.73,0-2.59,0a.82.82,0,0,1-.76-.55c-.71-1.37-1-2.89-1.61-4.29-1-2.25-1.66-4.62-2.55-6.91,0-.08-.07-.15-.15-.35a26.28,26.28,0,0,1-.12,3.49c-.31,1.91-.24,3.84-.38,5.76,0,.43,0,.75.56.75a6.3,6.3,0,0,1,1.13.17.62.62,0,0,1,.59.68c0,.51,0,1-.13,1.54s-.43.64-.89.61c-1.37-.11-2.75-.09-4.13-.1-.7,0-1.4,0-2.1,0s-.87-.28-.87-.9v-.2c0-1.33,0-1.35,1.29-1.73a.75.75,0,0,0,.63-.73c.3-2.1.35-4.21.49-6.31s.33-4.34.39-6.51c0-.51-.11-.79-.66-.82a3.39,3.39,0,0,1-.68-.13c-.8-.17-.91-.29-.86-1.1,0-.22.06-.43.08-.64.11-1.11.16-1.23,1.28-1.11,2,.21,4-.09,6.08,0a.9.9,0,0,1,.95.68c.78,2.35,1.74,4.64,2.36,7a17.2,17.2,0,0,0,1,2.45A13.51,13.51,0,0,1,64.31,231.82Z"/><path class="cls-1" d="M128.77,231.41c0-1.49,0-2.84,0-4.2a20.92,20.92,0,0,1,0-2.24c.05-.74,0-1.49,0-2.24,0-.26-.14-.35-.35-.4l-1.07-.27a.77.77,0,0,1-.67-.89c0-.4.06-.8.11-1.19a.6.6,0,0,1,.62-.54,55.86,55.86,0,0,1,6.47,0,.59.59,0,0,1,.62.63c0,.1,0,.2,0,.3,0,1.76-.15,1.51-1.34,1.88-.49.15-.52.47-.56.86a23.81,23.81,0,0,0,.08,3.68c.1,2.59-.2,5.18-.15,7.77a36.5,36.5,0,0,0,.15,4.18.71.71,0,0,1-.76.88c-.76,0-1.53,0-2.29,0a.87.87,0,0,1-.72-.39c-1.59-2-3-4.06-4.51-6.09-1.31-1.76-2.64-3.5-4-5.25,0,0-.06-.12-.12-.15.07,1.66,0,3.28,0,4.9a32.67,32.67,0,0,0-.05,3.43c.05.35.12.49.47.54s.78.19,1.17.26a.73.73,0,0,1,.69.86c0,.33,0,.66-.09,1-.08.64-.24.76-.9.8-1.81.12-3.62,0-5.42,0h-1.1a.66.66,0,0,1-.7-.69,8.83,8.83,0,0,1,0-1.15.86.86,0,0,1,.67-.82c1.27-.38,1.26-.39,1.3-1.7s0-2.79.07-4.19c.1-1.14-.1-2.29-.07-3.43,0-1.5,0-3,0-4.48a.53.53,0,0,0-.4-.6c-.33-.1-.65-.24-1-.36l-.32-.14c-.43-.25-.57-1.3-.26-2.12.18-.49.58-.47,1-.46a23.94,23.94,0,0,0,3.88,0,.82.82,0,0,1,.83.41l8.3,11.35Z"/><path class="cls-1" d="M31.44,219.34h3c1.79,0,3.58.21,5.38.1.41,0,.83-.08,1.24-.1a.7.7,0,0,1,.82.73c.13,1.6.26,3.21.3,4.82,0,.74-.19,1-.92,1l-1.14.09a.85.85,0,0,1-1-.62c-.28-.71-.63-1.4-.92-2.1a.68.68,0,0,0-.72-.48,33.09,33.09,0,0,1-4-.08c-.31,0-.47,0-.51.41a20.42,20.42,0,0,0,0,3.83c0,.38.14.51.53.51,1.63,0,3.26-.06,4.88.08.69.06.92.27.89,1,0,.5-.07,1-.11,1.49-.07.76-.27.91-1,1a38.43,38.43,0,0,1-3.87,0c-1.28,0-1.27,0-1.26,1.26s0,2.3,0,3.45c0,.4.12.56.54.54.81,0,1.63,0,2.44-.07a11.31,11.31,0,0,1,1.74.07.64.64,0,0,0,.7-.42A24.07,24.07,0,0,1,40,233.25a1,1,0,0,1,1-.52c.36,0,.73,0,1.09,0,.61,0,.77.24.81.84a16.08,16.08,0,0,1-.64,4.92c0,.11-.05.23-.07.34-.09.58-.34.83-.93.78a21,21,0,0,0-2.24-.07c-2.59.08-5.18.13-7.78.09a29.12,29.12,0,0,0-3.37-.09l-.89.07c-.58.06-.9-.21-.89-.79s.06-.89.1-1.34a.6.6,0,0,1,.54-.57c1.09-.12,1.44-.67,1.41-1.78,0-.87,0-1.76-.07-2.63-.06-1.78.22-3.55.19-5.32,0-.8-.08-1.6-.16-2.39a12.59,12.59,0,0,1,.08-1.84c0-.42-.09-.65-.55-.71a9.29,9.29,0,0,1-1-.22.6.6,0,0,1-.51-.54,6.61,6.61,0,0,1,0-1.54c.07-.46.39-.62.83-.61Z"/><path class="cls-1" d="M123.24,5.93c0,.6,0,1.2,0,1.8,0,.42.17.54.57.54,1.56,0,3.12,0,4.68.07.79,0,1,.27.91,1.06-.07.47-.1.95-.15,1.43-.06.64-.24.82-.88.83a37.19,37.19,0,0,1-4.48,0c-.61-.06-.63,0-.65.63-.06,1.34.21,2.68.11,4,0,.31.15.4.44.4,1.36,0,2.72,0,4.08.08a.63.63,0,0,0,.67-.39c.45-.86.94-1.69,1.39-2.54a.9.9,0,0,1,.92-.55c.41,0,.83,0,1.24.08.63.06.8.26.73.92-.09,1-.24,2-.33,3a17.5,17.5,0,0,1-.46,2.15.6.6,0,0,1-.66.54c-1.1,0-2.2.05-3.29-.06a27.77,27.77,0,0,0-4.08.11c-.85,0-1.69,0-2.54,0-1.33,0-2.66,0-4,0-.76,0-.94-.19-.94-.95a.76.76,0,0,1,0-.15c0-1.29,0-1.33,1.25-1.67.53-.14.66-.39.65-.9,0-1.83,0-3.66,0-5.49,0-1.46.1-2.93.06-4.39,0-.91-.09-1.82-.07-2.74,0-.3-.1-.48-.39-.53l-.15,0c-1.59-.43-1.39-.23-1.36-2.08a.64.64,0,0,1,.68-.65,23.85,23.85,0,0,1,3.78,0,20.78,20.78,0,0,0,2.09,0c1.2,0,2.4,0,3.59.07a33.17,33.17,0,0,0,4.23,0c.77-.07.92.17,1,.94a29.08,29.08,0,0,1,.19,4.47c0,.67-.19.88-.85.89-2,0-1.62.26-2.41-1.45-.2-.42-.42-.83-.6-1.26a.55.55,0,0,0-.61-.38,22.24,22.24,0,0,1-4.08,0c-.29,0-.33.15-.33.38V5.93Z"/><path class="cls-1" d="M60,4.88c0,.59,0,1.17,0,1.75s-.24.72-.74.75L58,7.41a.78.78,0,0,1-.84-.56c-.34-.86-.7-1.72-1-2.59a.64.64,0,0,0-.7-.49c-.4,0-.8,0-1.19-.06s-.53.06-.5.45c.16,1.94,0,3.89.07,5.83a33.18,33.18,0,0,1-.19,4.78,15.19,15.19,0,0,0,.19,2.13c0,.22.16.3.36.35l1.21.28a.71.71,0,0,1,.63.77c0,.37,0,.73,0,1.1s-.24.74-.75.74-1.13-.1-1.69-.07c-2,.12-3.95.06-5.93.08-.88,0-1.06-.23-1-1.11.15-1.68.23-1.39,1.62-1.78.46-.13.63-.29.65-.79.12-2.58-.16-5.15,0-7.72.09-1.42-.07-2.83,0-4.24,0-.66-.07-.71-.71-.71H47.9c-1.23,0-1.23,0-1.72,1.15-.25.62-.5,1.23-.74,1.85a.81.81,0,0,1-.84.58,7.4,7.4,0,0,0-.94,0c-.72.07-1-.17-1-.91a17.29,17.29,0,0,1,.1-2.69c.1-.81.16-1.62.19-2.43s.25-1,1.07-.94A19.5,19.5,0,0,0,47.3.41c1-.08,2,0,3,0,2.21,0,4.42,0,6.63-.1a11.93,11.93,0,0,1,1.79.09c.68.09.79.19.92.87A14.81,14.81,0,0,1,60,4.88Z"/><path class="cls-1" d="M76,20H72.29c-.76,0-.9-.28-.88-1,0-1.17.75-1.62,1.7-1.87.4-.1.51-.29.52-.69,0-.76-.12-1.52-.08-2.29.11-2.67.08-5.35.06-8,0-.65,0-1.3-.07-1.95,0-.29-.14-.42-.43-.4h0c-1.63-.06-1.63-.06-2.26,1.44-.23.54-.46,1.07-.68,1.61a.78.78,0,0,1-.85.55L68,7.28a.58.58,0,0,1-.6-.65,32.72,32.72,0,0,1,.2-5.42c.15-.71.34-.83,1-.74a7.79,7.79,0,0,0,1.74,0,27.21,27.21,0,0,1,3.38,0c1.93,0,3.86,0,5.78,0,1.36,0,2.72,0,4.09,0a.64.64,0,0,1,.63.59,24.85,24.85,0,0,1,.34,5.71.59.59,0,0,1-.61.6,7.21,7.21,0,0,1-1.54-.1c-.33,0-.45-.31-.56-.58-.34-.85-.63-1.72-1-2.53a.73.73,0,0,0-.78-.47,8,8,0,0,1-1.2,0c-.4,0-.55.12-.54.54,0,1.76,0,3.52.08,5.28a46,46,0,0,1-.12,5.38c0,.69.16,1.35.15,2,0,.24.17.3.36.34l1.27.28a.67.67,0,0,1,.59.64,8.65,8.65,0,0,1-.06,1.25c-.05.5-.4.64-.85.64H76Z"/><path class="cls-1" d="M4.79,219.34c1.86-.09,3.71.18,5.57.1.52,0,.72.2.74.72s0,.77,0,1.15a.71.71,0,0,1-.64.76l-1.61.34c-.3.06-.46.19-.44.53,0,1.17-.09,2.32-.16,3.48-.05.87.16,1.76.14,2.63-.05,1.86-.07,3.72-.08,5.58,0,.44.12.86.11,1.29,0,.22.13.3.33.27a26.6,26.6,0,0,1,3.68,0,.78.78,0,0,0,.73-.46c.61-1.14,1.26-2.26,1.89-3.39a.79.79,0,0,1,.76-.46c.36,0,.73-.07,1.09-.08.67,0,.93.24.88.9-.09,1.14-.22,2.27-.33,3.41a26.42,26.42,0,0,1-.54,2.79.68.68,0,0,1-.77.62c-1.45-.07-2.89.12-4.33.09-.78,0-1.56-.12-2.34-.1-1.79.05-3.59.08-5.38.11a17.42,17.42,0,0,1-2-.1.65.65,0,0,1-.65-.68c0-.43,0-.86,0-1.3a.68.68,0,0,1,.52-.65,9.46,9.46,0,0,1,.91-.26c.41-.08.54-.31.54-.71,0-1.18-.08-2.36-.05-3.53,0-1.36.12-2.73,0-4.08-.12-1.77.17-3.52.14-5.28,0-.46-.11-.73-.6-.77a.67.67,0,0,1-.19,0c-.42-.18-1-.07-1.23-.54a3.22,3.22,0,0,1,0-1.82.57.57,0,0,1,.53-.45A23.58,23.58,0,0,1,4.79,219.34Z"/><path class="cls-1" d="M6.69.48c1.25,0,2.5,0,3.74,0,.87,0,1,.28,1,1.14,0,1.29-.09,1.3-1.44,1.62s-1.18,0-1.21,1.53c0,2.1,0,4.22,0,6.32a24.31,24.31,0,0,1-.09,4.18,6.26,6.26,0,0,0,.08,1.29c0,.22.18.26.36.26l3.93-.09c.27,0,.36-.22.46-.41.53-1,1.07-2,1.58-3.05a1.1,1.1,0,0,1,1.17-.73c.33,0,.67,0,1,0a.63.63,0,0,1,.66.72c-.21,2.1-.06,4.26-.92,6.27a.86.86,0,0,1-.83.51,36.74,36.74,0,0,1-5,.07c-2.6-.08-5.19-.06-7.78-.08A6.3,6.3,0,0,1,2.66,20a.65.65,0,0,1-.58-.69v-.2c0-1.44,0-1.45,1.34-1.89A.68.68,0,0,0,4,16.44c0-2.12,0-4.23,0-6.34C3.89,8.55,3.91,7,4,5.47c0-.23,0-.47,0-.7,0-1.33,0-1.33-1.32-1.65C2,3,1.91,2.79,2,2.12l.09-1c0-.49.32-.69.8-.68,1.28,0,2.56,0,3.84,0Z"/><path class="cls-1" d="M103.77,20.15c-1.81,0-3.22,0-4.63-.06A35,35,0,0,1,95.31,20a7.47,7.47,0,0,0-1.88.16c-.69.09-1-.16-1-.85,0-.4.07-.79.11-1.19a.68.68,0,0,1,.43-.57l.47-.16c.83-.27.74-.29.91-1.11s.11-1.75.22-2.62a2.72,2.72,0,0,0-.07-1,16.63,16.63,0,0,1,0-4.62c0-.74,0-1.46-.07-2.19s-.08-1.29-.06-1.94a.51.51,0,0,0-.51-.6c-.32,0-.65-.13-1-.21a.62.62,0,0,1-.5-.7c0-.45.09-.9.15-1.34a.61.61,0,0,1,.68-.59c1,0,1.93,0,2.89,0a25.34,25.34,0,0,0,4.77-.11c.94-.09,1.19.14,1.1,1.07-.14,1.47-.14,1.47-1.6,1.79-1,.22-1,.22-1.17,1.23a16.84,16.84,0,0,0,0,3.33,15.51,15.51,0,0,1,0,2.64,10.93,10.93,0,0,0,0,2.14c.1,1.16,0,2.33.07,3.49,0,.81,0,.84.84.85a4.56,4.56,0,0,0,1-.08,5.88,5.88,0,0,1,2.17-.12.74.74,0,0,0,.94-.65,9.87,9.87,0,0,1,1.47-3,.9.9,0,0,1,.86-.46h1a.68.68,0,0,1,.74.7,18.2,18.2,0,0,1-.75,6.31.66.66,0,0,1-.71.5Z"/><path class="cls-1" d="M30.15,20.05c-1.07,0-2.23,0-3.39,0-.52,0-.73-.18-.74-.7V19c0-1.33,0-1.35,1.3-1.72a.72.72,0,0,0,.6-.84c0-1.7-.06-3.39,0-5.08a53.66,53.66,0,0,0-.09-5.53,13.86,13.86,0,0,1,.09-1.93.48.48,0,0,0-.47-.57c-.33-.05-.66-.11-1-.18a.62.62,0,0,1-.57-.74c.05-.43.11-.86.17-1.28a.71.71,0,0,1,.77-.64L32,.49c.66,0,1.32,0,2-.06s.75.17.77.72V1.4c0,1.47,0,1.48-1.4,1.91a.64.64,0,0,0-.52.66c-.23,2.32-.06,4.64-.06,7,0,1.37.08,2.75.08,4.13a15,15,0,0,0,0,1.64c0,.29.13.43.4.47l.84.15c.69.13.83.31.77,1,0,.3-.08.6-.12.89-.11.61-.31.8-.93.81Z"/></g></svg>