<svg id="Layer_1" data-name="Layer 1" xmlns="http://www.w3.org/2000/svg" viewBox="0 0 200 56"><defs><style>.cls-1{fill:#f3cd14;}.cls-2{fill:#4a5f58;}</style></defs><path class="cls-1" d="M32,33c.38.82-.11,1.55-.22,2.31-.18,1.23-.39,2.46-.59,3.69a.88.88,0,0,1-.06.29,41.73,41.73,0,0,0-1.6,4.77A24.78,24.78,0,0,1,28.2,47a7.16,7.16,0,0,0-.49,1.61,1.32,1.32,0,0,1-.28.52,5.27,5.27,0,0,0-1.22,4.2,1.6,1.6,0,0,1-1.45,1.86c-.09,0-.21,0-.25.1h-.9a1,1,0,0,0-.1-.17c-.8-.81-1.87-1.27-2.68-2.1s-1.85-.7-2.63-1.33c-.09-.07-.23-.06-.34-.09-2.47-.67-4.93-1.3-6.77-3.32-.88-1-2.06-1.65-2.89-2.72s-1.64-1.81-2.48-2.7-1-1.77-1.59-2.57a10.24,10.24,0,0,1-2.41-4.61C1.37,33.78.53,32,.46,30c0-.55-.35-1.08-.2-1.61A3.56,3.56,0,0,0,0,26.1v-.7A7,7,0,0,0,.28,23a4.84,4.84,0,0,1,.63-2.54,13.06,13.06,0,0,0,.71-1.89,3,3,0,0,1,.71-1.52,4.57,4.57,0,0,0,1-1.71,12.82,12.82,0,0,1,.94-2.51c.44-.71.42-1.62,1-2.25a.59.59,0,0,0,0-.2,23.42,23.42,0,0,0,.32-3,3.35,3.35,0,0,1,1-2A5.14,5.14,0,0,1,9.58,3.6a1.41,1.41,0,0,1,1,0,.4.4,0,0,0,.58,0,2.15,2.15,0,0,1,.73-.31,17.94,17.94,0,0,1,4.19-.41,11.79,11.79,0,0,1,3.65.27,1,1,0,0,0,.3,0c.85,0,1.67.26,2.52.24.07,0,.12,0,.11.23-3.72,0-7.44.15-11.24.25.48.76,1.19,1.14,1.64,1.74A3.5,3.5,0,0,0,15,6.79c1.07.34,2.05.92,3.14,1.22l1.3,1a2.63,2.63,0,0,0,.92.49,1.49,1.49,0,0,1,.73.48c.51.59,1.3.79,1.88,1.3A17.12,17.12,0,0,1,26.66,15a.47.47,0,0,0,.15.19c.78.45,1,1.32,1.55,2,.75,1,1,2.2,1.78,3.14a.59.59,0,0,1,.12.22c.31,1.74,1.23,3.3,1.58,5,0,.08.07.17.05.23a4.21,4.21,0,0,0,.2,1.9,12.66,12.66,0,0,1-.05,5C32,32.78,32,32.93,32,33Z"/><path class="cls-2" d="M10.61,3.61a20.34,20.34,0,0,1,4-2.23c.6-.32,1.34-.32,2-.59a.5.5,0,0,0,.12-.08h2.9a1.08,1.08,0,0,0,.6.18,8.93,8.93,0,0,1,2.47.75,21.65,21.65,0,0,0,2.67.8,2.69,2.69,0,0,1,1.66,1l.18.35a.77.77,0,0,1-.28,1,10,10,0,0,1-3,1.72,20.31,20.31,0,0,1-4.6,1.3L18.16,8c-1.09-.3-2.07-.88-3.14-1.22a3.5,3.5,0,0,1-1.93-1.12c-.45-.6-1.16-1-1.64-1.74,3.8-.1,7.52-.26,11.24-.25,0-.19,0-.23-.11-.23-.85,0-1.67-.29-2.52-.24a1,1,0,0,1-.3,0,11.79,11.79,0,0,0-3.65-.27,17.94,17.94,0,0,0-4.19.41,2.15,2.15,0,0,0-.73.31A.4.4,0,0,1,10.61,3.61Z"/><path class="cls-2" d="M18.49,16.51a9.8,9.8,0,0,0,.24,3.66.54.54,0,0,1-.4.69.66.66,0,0,1-.58-.05c-1-.6-2.16-.91-3.16-1.55a15.6,15.6,0,0,0-2.31-1.06c-.89-.37-1.66-1-2.55-1.35-.64-.29-1-1-1.43-1.5a7.49,7.49,0,0,1-1.46-4.21,1.71,1.71,0,0,1,0-.45c.18-.84.35-1.69.55-2.53a3.6,3.6,0,0,1,.71-1.58A12,12,0,0,0,9,5a1.23,1.23,0,0,1,2-.19,21.51,21.51,0,0,1,2.06,2.1,1.06,1.06,0,0,0,.29.27,16.34,16.34,0,0,1,3.33,3.26,5.54,5.54,0,0,1,1.23,2.93,19.31,19.31,0,0,0,.43,2.6C18.42,16.12,18.45,16.32,18.49,16.51ZM10.14,6.75a.54.54,0,0,0,0,.38,29.42,29.42,0,0,0,4.52,9,5.06,5.06,0,0,0,1.68,1.44c-.39-.76-.9-1.45-1.24-2.22-.85-1.95-2-3.71-3-5.61-.31-.62-.76-1.17-1-1.81A5.2,5.2,0,0,0,10.14,6.75Z"/><path class="cls-2" d="M200,25.6c-.11.06-.17.21-.32.22-.63.06-.7.47-.7,1,0,2.58,0,5.16,0,7.74,0,.49-.18.59-.63.65a1.84,1.84,0,0,1-1.9-.91c-1.25-1.7-2.42-3.46-3.76-5.1l-.26-.32a3.29,3.29,0,0,0,0,.89c0,1.08,0,2.17-.07,3.25,0,.44.11.67.59.69s.77.13.72.72c-.07.77-.07.79-.85.77-1,0-2-.08-2.94,0-.29,0-.6,0-.58-.38s-.18-.88.39-1,.71-.39.7-1c0-2.13,0-4.26,0-6.39a.41.41,0,0,0-.35-.45c-.88-.29-.79-.14-.76-1.15,0-.32.16-.44.46-.43a9.74,9.74,0,0,0,2.29,0c.19,0,.27.15.37.29l4.56,6.2c0-.89,0-1.69,0-2.49,0-.64,0-1.29,0-1.94,0-.34-.11-.53-.48-.59a.87.87,0,0,1-.53-1.32.39.39,0,0,1,.35-.16l3.49.08c.07,0,.15.07.22.1Z"/><path class="cls-2" d="M165.58,28.47c-.46,1.19-.93,2.37-1.38,3.56-.29.77-.55,1.54-.8,2.31a.5.5,0,0,1-.53.4c-1.61.12-1.61.14-2.14-1.36l-1.79-5a3.18,3.18,0,0,0-.16,1.34c0,1.17-.13,2.32-.21,3.48,0,.35.08.47.41.52.88.14.87.16.76,1-.05.36-.22.47-.56.47-1,0-2.06.09-3.09,0-.25,0-.58,0-.57-.32s-.24-1,.32-1.07c.76-.14.76-.58.79-1.19.09-2.05.25-4.11.4-6.17,0-.31,0-.47-.37-.49-.15,0-.29-.06-.44-.08a.38.38,0,0,1-.35-.49,5.28,5.28,0,0,0,0-.55c0-.29.18-.39.46-.42,1.14-.1,2.29.12,3.44,0,.28,0,.4.19.48.42l1.51,4.27c.24.69.47,1.38.72,2.13.08-.12.15-.18.16-.26.32-1.26.95-2.41,1.24-3.68.2-.9.7-1.69.9-2.59.06-.23.24-.29.46-.29l3.39,0c.3,0,.45.15.44.48,0,.71-.08.82-.79,1-.24.08-.34.17-.32.45q.24,3.42.44,6.86c0,.31.12.43.44.48A.84.84,0,0,1,169.5,35a.38.38,0,0,1-.41.2c-1.27,0-2.53.07-3.79,0-.46,0-.55-.22-.56-.62,0-.56.19-.87.76-.92.31,0,.41-.19.42-.53.05-1.56-.33-3.1-.21-4.67Z"/><path class="cls-2" d="M179.34,24.32c3.64-.15,5.57,3.13,5.19,6.1a6.2,6.2,0,0,1-.77,2.65,4.76,4.76,0,0,1-3,2.09,5,5,0,0,1-3.92-.35,5.11,5.11,0,0,1-2.4-2.87,6.38,6.38,0,0,1,.29-5,4.6,4.6,0,0,1,4.09-2.67C179,24.31,179.18,24.32,179.34,24.32Zm2.35,6c0-.44,0-.74,0-1a3.79,3.79,0,0,0-1.4-2.85,1.87,1.87,0,0,0-2.88.71,6.71,6.71,0,0,0-.26,4,2.82,2.82,0,0,0,1.16,2,1.92,1.92,0,0,0,2.91-.53A3.81,3.81,0,0,0,181.69,30.32Z"/><path class="cls-2" d="M112.08,35.21c-1.19-.09-2.4,0-3.62,0-.24,0-.52,0-.58-.31-.1-.54,0-1,.38-1.09.65-.09.7-.5.73-1,.06-1.27-.08-2.53-.08-3.8,0-.86,0-1.73,0-2.59,0-.33-.13-.41-.41-.47-.69-.15-.9-.58-.63-1.26a.41.41,0,0,1,.48-.26,31.26,31.26,0,0,0,3.49,0c1.31,0,2.62,0,3.93,0,.26,0,.46,0,.5.35a13.14,13.14,0,0,1,.2,2.58c0,.41-.16.59-.56.57a3.37,3.37,0,0,0-.55,0c-.27,0-.48-.06-.52-.34-.21-1.21-1-1.51-2.1-1.4-.38,0-.85-.11-1.12.07s0,.66,0,1,0,.8-.09,1.2.08.37.36.36c.81,0,1.63,0,2.45-.07.58,0,.71.1.64.69-.15,1.15-.15,1.16-1.31,1.21-.58,0-1.17,0-1.75,0-.2,0-.31,0-.31.27,0,.7,0,1.4-.08,2.1,0,.36.09.54.51.51.73-.05,1.46-.06,2.19-.07a.38.38,0,0,0,.38-.25c.2-.42.43-.83.6-1.26a.55.55,0,0,1,.65-.4,3.4,3.4,0,0,0,.45,0c.37,0,.51.14.53.54a11,11,0,0,1-.42,2.85c-.06.26-.22.29-.44.29Z"/><path class="cls-2" d="M146.34,35.2c-1.23,0-2.46,0-3.69,0-.44,0-.54-.16-.55-.56s.09-.92.71-1c.27,0,.32-.19.34-.45.11-2.29,0-4.59,0-6.88,0-.36-.23-.35-.45-.4-.71-.18-.7-.18-.64-.89,0-.43.2-.58.65-.6,2.43-.08,4.85,0,7.28,0a.43.43,0,0,1,.49.38,8.87,8.87,0,0,1,.19,2.67.37.37,0,0,1-.42.39h0c-1.14,0-.89.21-1.38-.85-.4-.88-.39-.88-1.38-.85-.46,0-.93,0-1.4,0-.21,0-.29.07-.3.29,0,.64,0,1.29,0,1.94,0,.3.15.36.4.36.81,0,1.63,0,2.44,0,.52,0,.64.07.58.59-.15,1.41,0,1.22-1.26,1.24l-1.84,0c-.21,0-.3,0-.3.26,0,.75,0,1.5,0,2.25,0,.2.07.28.28.31a22.07,22.07,0,0,0,2.44,0c.22,0,.27-.16.34-.31.21-.41.41-.83.62-1.25s.62-.45,1.28-.26c.37.1.28.38.27.65a10.18,10.18,0,0,1-.32,2.46.59.59,0,0,1-.67.51C148.8,35.18,147.57,35.2,146.34,35.2Z"/><path class="cls-2" d="M85.33,35.18a12.79,12.79,0,0,1-1.76,0c-.26,0-.56-.07-.5-.4s-.19-.79.35-1c.88-.31.88-.32.86-1.18,0-2,.06-4,0-5.94,0-.37-.13-.45-.48-.49-.55-.06-.86.08-1,.64a8.18,8.18,0,0,1-.39,1,.55.55,0,0,1-.63.42c-.87,0-.87,0-.93-.91A11.36,11.36,0,0,1,81,25c.06-.41.24-.54.62-.54,1.16,0,2.32,0,3.49,0,1.36,0,2.72-.05,4.08-.06.92,0,.92,0,1,.92a13.66,13.66,0,0,1,.1,2.39c0,.37-.15.49-.55.5a1,1,0,0,1-1.1-.77,4.37,4.37,0,0,0-.23-.49c-.39-.83-.39-.82-1.29-.77-.21,0-.3.06-.29.28,0,.06,0,.13,0,.2.16,1.77,0,3.55,0,5.33a8.25,8.25,0,0,1,0,1c0,.47.08.68.58.74.71.08.68.13.65.83,0,.45-.21.62-.65.61Z"/><path class="cls-2" d="M72.27,35.2c-1,0-1.64,0-2.33,0-.37,0-.5-.16-.48-.52.05-.76,0-.77.83-1,.27-.08.41-.17.41-.5,0-1.33,0-2.66,0-4,0-.86,0-1.73.06-2.59,0-.33-.08-.4-.41-.42a1.06,1.06,0,0,0-1.2.81,3.82,3.82,0,0,1-.26.54,1,1,0,0,1-1.22.64.4.4,0,0,1-.38-.44,22.86,22.86,0,0,1,.18-3c0-.27.22-.29.44-.29,2.31.07,4.62-.16,6.93,0a10.53,10.53,0,0,0,1.25,0,.44.44,0,0,1,.52.4,12.39,12.39,0,0,1,.13,3,.37.37,0,0,1-.17.29,1,1,0,0,1-1.39-.45c-.13-.32-.26-.64-.41-1s-.07-.48-.33-.5a6.14,6.14,0,0,0-1.05,0c-.13,0-.09.16-.09.25,0,2.23,0,4.46,0,6.69,0,.37.13.5.46.53l.49.09c.27,0,.37.19.34.45s0,.36-.06.54a.38.38,0,0,1-.48.42A11.24,11.24,0,0,0,72.27,35.2Z"/><path class="cls-2" d="M98.86,35.2c-1.18,0-2.36,0-3.54,0-.28,0-.6,0-.59-.36s-.17-.89.38-1,.67-.44.66-1c-.06-2.12,0-4.25,0-6.38,0-.37-.13-.48-.46-.53a.78.78,0,0,1-.52-1.22c.1-.18.27-.16.43-.18a17,17,0,0,1,2.94,0h1.1c.23,0,.54,0,.54.29s.17.79-.27,1A1.23,1.23,0,0,1,99,26c-.6,0-.64.38-.66.84-.09,1.83,0,3.66,0,5.49,0,.35-.18.78,0,1s.68,0,1,.1a1.57,1.57,0,0,0,2.07-1.06c.09-.22.21-.42.31-.63.29-.62.55-.75,1.21-.61a.42.42,0,0,1,.38.45,14.13,14.13,0,0,1-.47,3.3c-.09.3-.27.33-.52.33C101.23,35.19,100,35.2,98.86,35.2Z"/><path class="cls-2" d="M133.07,35.21c-1.16,0-2.33,0-3.49,0-.33,0-.63,0-.63-.45s-.2-.89.45-1c.46-.06.6-.28.6-.76,0-2.18,0-4.36,0-6.54a.48.48,0,0,0-.45-.56.78.78,0,0,1-.54-1.23c.1-.18.27-.17.43-.18a10.82,10.82,0,0,1,1.8,0c.78.05,1.56,0,2.34,0,.24,0,.49,0,.47.31s.24.79-.23,1a1,1,0,0,1-.29.08c-.95.21-1,.21-.95,1.15,0,1.82,0,3.63,0,5.44,0,1.16,0,.9.94.95h.15c1.56,0,1.56,0,2.24-1.41l.15-.32a1,1,0,0,1,1.33-.59.36.36,0,0,1,.26.42,13.49,13.49,0,0,1-.41,3.16.58.58,0,0,1-.66.5c-.58,0-1.17,0-1.75,0Z"/><path class="cls-2" d="M49.32,35.18H45.43c-.24,0-.53,0-.51-.31s-.25-.93.29-1,.76-.49.76-1.07c0-1,0-2.06,0-3.1s0-2,0-3a.65.65,0,0,0-.62-.79c-.56-.09-.56-.19-.49-1,0-.46.34-.42.64-.42,1.35,0,2.7.11,4.05,0,.28,0,.42.1.44.41,0,.86,0,.91-.83,1.07-.4.08-.63.17-.65.66,0,.78,0,1.56,0,2.34,0,1.35,0,2.7.07,4.05,0,.35.08.51.47.49.6,0,1.2,0,1.79-.06a.52.52,0,0,0,.46-.31c.26-.54.53-1.07.79-1.61s.59-.52,1.19-.34c.39.12.29.42.27.7a19.79,19.79,0,0,1-.35,2.77.59.59,0,0,1-.67.55C51.36,35.2,50.2,35.23,49.32,35.18Z"/><path class="cls-2" d="M60.49,35.2h-1.8c-.25,0-.58,0-.57-.31s-.24-1,.33-1.06.74-.56.74-1.09c0-1.78,0-3.56,0-5.34,0-.12,0-.23,0-.35a2.65,2.65,0,0,0,0-.89c-.11-.3-.51-.19-.78-.27a.37.37,0,0,1-.31-.4s0-.1,0-.15c.12-.92-.07-.94,1-.9s2.2,0,3.29,0c.42,0,.55.14.55.55,0,.57-.16.93-.76,1-.27,0-.29.19-.31.41a10,10,0,0,0,0,1.45c.12,1.69-.13,3.38,0,5.08,0,.47.07.82.68.83s.46.51.44.89-.11.62-.59.59-1.2,0-1.79,0Z"/></svg>